<?xml version="1.0" encoding="utf-8"?>
<!-- Generator: Adobe Illustrator 22.0.1, SVG Export Plug-In . SVG Version: 6.00 Build 0)  -->
<svg version="1.1" id="Lager_1" xmlns="http://www.w3.org/2000/svg" xmlns:xlink="http://www.w3.org/1999/xlink" x="0px" y="0px"
	 viewBox="0 0 1024 600" style="enable-background:new 0 0 1024 600;" xml:space="preserve">
<style type="text/css">
	.st0{fill:#116D9E;}
	.st1{enable-background:new    ;}
</style>
<path class="st0" d="M229.2,16.6c-48.1,0-84.3,19.3-84.8,68.8s50.9,68.8,84.8,67.9c33.9-0.9,87.6-22.6,89.6-64.1
	C320.7,47.7,277.3,16.6,229.2,16.6z"/>
<g>
	<path class="st0" d="M423.8,331.9c0-123.8-110.6-107.3-117.7-101.8c0,5.4,33.9,26.4,33.9,103.7s-31.1,102.8-31.1,102.8
		S423.8,464.3,423.8,331.9z"/>
	<path class="st0" d="M299.5,207.5c0,0-34-31-81.1-31C157.1,176.4,97,237.7,97,346.1c0,95,80.2,208.7,209.1,116
		c0,0,54.9,7.2,89.6-16c0,0,134.8,19.2,134.8-118.8c0-162.9-147.1-109.4-147.1-109.4C339,189.9,299.5,207.5,299.5,207.5z M222,185.8
		c29.2,0,68.9,24.4,76.5,34.8c25.5-7.6,49-14.1,86.7,8.5c0,0,132.9-55.4,132.9,94.3c0,138.2-127.3,112.1-127.3,112.1
		c-25.8,20.8-89.6,13.2-89.6,13.2c-120.6,86-187.7-9.9-187.7-101.1C113.5,238.4,161.2,185.8,222,185.8z"/>
	<path class="st0" d="M217.5,196.2c-27.3,0-93.4,26.4-93.4,142.3s62.2,133.9,99,133.9s105.6-28.3,105.6-137.7S256,196.2,217.5,196.2
		z"/>
	<path class="st0" d="M506.8,329.5c0-143.7-110.3-93.8-110.3-93.8S437,265.9,437,331S402.2,427,402.2,427S506.8,428,506.8,329.5z"/>
</g>
<path class="st0" d="M398.4,105c9.2-71.6-93.7-70.2-88.2-64.5s16.6,18.6,16.6,49.3s-32.6,54.6-38.5,57.4
	C282.4,150,389.2,176.5,398.4,105z"/>
<g>
	<path class="st0" d="M382.8,146.7c13.7-9.4,26-24.3,26-46.6c0-14.8-9.2-36.4-12.1-39.4c-2.9-3,85.6-8.6,85.6,47
		C482.3,174.8,376.1,151.2,382.8,146.7z"/>
	<path class="st0" d="M500.3,105.7c1.2-41.2-45.6-68.9-107.8-59.9c-33.2-34.5-87.3-19.2-87.3-19.2C288.3,3,126-34.2,126,83
		c0,102.8,126.6,89.5,150.4,76.3c11.9,4.9,47.9,23.9,96.2,0.4C398.5,171.2,498,185.8,500.3,105.7z M372.8,150.9
		c-49.8,25.6-94.3,1.3-94.3,1.3c-13.7,6-29.6,9.4-46.9,9.1c-54.7-1-97.1-34.9-97.1-81c0-23.7,28.3-72.6,95.2-70.7
		c34,1,58.5,10.7,74.4,25.3l0,0c31.6-11.4,65.8-1,86.2,18.5c80.7-7,100.5,33.5,100.5,54.3C490.8,176.5,385.8,162.8,372.8,150.9z"/>
</g>
<path class="st0" d="M255.2,543.8C180,553,105,577.5,60,590s-97.9,7.5-14-16.5s105-35,211.2-47.5s261.1-14.8,395.3-19.9
	C786.7,501,908.9,440.4,940,403c13.2-15.9,22.4-4.2,14,8c-8.5,12.3-132.3,114.7-304.3,114.7C649.7,525.7,330.4,534.5,255.2,543.8z"
	/>
<path class="st0" d="M177.1,584.2C196.6,578.7,326,558,392,554s272-5.7,326.2-12.7c54.2-7,116.6-23.3,177.8-63.3s94.1-72.7,109-109
	c10-24.4,24-17.1,16,7s-67,89.8-114,120c-26.3,18.8-104.8,57-181,64s-265.8,6.9-332,11s-191.3,22.2-213.7,26.6
	C158,602,157.6,589.8,177.1,584.2z"/>
<g class="st1">
	<path class="st0" d="M617.8,354.6c0,4.5-1.6,8.1-4.9,10.6s-7.7,3.8-13.4,3.8c-6.1,0-10.8-0.8-14.1-2.4v-5.8
		c2.1,0.9,4.4,1.6,6.9,2.1s4.9,0.8,7.4,0.8c4,0,7-0.8,9-2.3s3-3.6,3-6.3c0-1.8-0.4-3.2-1.1-4.4s-1.9-2.2-3.6-3.1s-4.2-2.1-7.6-3.3
		c-4.8-1.7-8.2-3.7-10.2-6.1s-3.1-5.4-3.1-9.2c0-4,1.5-7.1,4.5-9.5s6.9-3.5,11.8-3.5c5.1,0,9.8,0.9,14.1,2.8l-1.9,5.2
		c-4.2-1.8-8.4-2.7-12.4-2.7c-3.2,0-5.6,0.7-7.4,2s-2.7,3.2-2.7,5.7c0,1.8,0.3,3.2,1,4.4s1.8,2.2,3.3,3.1s3.9,2,7.2,3.1
		c5.4,1.9,9.1,4,11.1,6.2S617.8,351.1,617.8,354.6z"/>
	<path class="st0" d="M668.7,368.3h-28.7v-51.4h28.7v5.3h-22.7v16.6h21.3v5.3h-21.3V363h22.7V368.3z"/>
	<path class="st0" d="M732.1,368.3h-6.8l-28.1-43.1h-0.3c0.4,5.1,0.6,9.7,0.6,13.9v29.2h-5.5v-51.4h6.8l28,43h0.3
		c0-0.6-0.2-2.7-0.3-6.1s-0.2-5.9-0.2-7.4v-29.5h5.6V368.3z"/>
	<path class="st0" d="M786.7,368.3H758v-51.4h28.7v5.3H764v16.6h21.3v5.3H764V363h22.7V368.3z"/>
	<path class="st0" d="M831.8,341.4h17.5v25c-2.7,0.9-5.5,1.5-8.3,2s-6.1,0.7-9.8,0.7c-7.8,0-13.8-2.3-18.2-6.9s-6.5-11.1-6.5-19.5
		c0-5.3,1.1-10,3.2-14s5.2-7.1,9.3-9.2s8.8-3.2,14.2-3.2c5.5,0,10.6,1,15.3,3l-2.3,5.3c-4.6-2-9.1-3-13.4-3
		c-6.3,0-11.1,1.9-14.7,5.6s-5.3,8.9-5.3,15.5c0,6.9,1.7,12.2,5.1,15.8s8.4,5.4,14.9,5.4c3.6,0,7-0.4,10.4-1.2v-15.8h-11.5V341.4z"
		/>
	<path class="st0" d="M905.7,368.3l-6.4-16.3h-20.6l-6.3,16.3h-6l20.3-51.6h5l20.2,51.6H905.7z M897.4,346.6l-6-15.9
		c-0.8-2-1.6-4.5-2.4-7.4c-0.5,2.3-1.3,4.7-2.2,7.4l-6,15.9H897.4z"/>
	<path class="st0" d="M930.8,368.3v-51.4h6v46h22.7v5.4H930.8z"/>
</g>
<g class="st1">
	<path class="st0" d="M706.6,202.5c0,23.8-6.6,42.2-19.7,55.1c-13.1,12.9-31.6,19.3-55.3,19.3h-46.2V134.2h49.4
		c22.9,0,40.6,5.9,53.1,17.6C700.4,163.5,706.6,180.4,706.6,202.5z M666.6,203.9c0-13.1-2.6-22.8-7.8-29.1c-5.2-6.3-13-9.5-23.6-9.5
		H624v80h8.6c11.7,0,20.3-3.4,25.8-10.2C663.8,228.3,666.6,217.9,666.6,203.9z"/>
	<path class="st0" d="M844.8,179.6c0,16-4.7,28.3-14.1,37c-9.4,8.7-22.8,13-40.1,13h-10.8v47.4h-38.6V134.2h49.4
		c18,0,31.6,3.9,40.6,11.8C840.3,153.9,844.8,165,844.8,179.6z M779.8,198.1h7c5.8,0,10.4-1.6,13.8-4.9c3.4-3.3,5.1-7.7,5.1-13.5
		c0-9.6-5.3-14.5-16-14.5h-10V198.1z"/>
	<path class="st0" d="M960.3,276.9h-84.8V134.2h84.8v31h-46.2v22.5h42.8v31h-42.8v27h46.2V276.9z"/>
</g>
</svg>
