<?xml version="1.0" encoding="utf-8"?>
<!-- Generator: Adobe Illustrator 22.0.1, SVG Export Plug-In . SVG Version: 6.00 Build 0)  -->
<svg version="1.1" id="Lager_1" xmlns="http://www.w3.org/2000/svg" xmlns:xlink="http://www.w3.org/1999/xlink" x="0px" y="0px"
	 viewBox="0 0 1024 600" style="enable-background:new 0 0 1024 600;" xml:space="preserve">
<style type="text/css">
	.st0{fill:#116D9E;}
	.st1{font-family:'OpenSans-Bold';}
	.st2{font-size:57.6465px;}
</style>
<path class="st0" d="M231.1,17c-49.5,0-86.8,19.9-87.3,70.8c-0.5,50.9,52.4,70.8,87.3,69.9s90.2-23.3,92.2-66S280.6,17,231.1,17z"/>
<g>
	<path class="st0" d="M433.4,340.6c-8.7-136.8-123.2-103.8-123.2-103.8s34.9,27.2,34.9,106.7s-32,105.8-32,105.8
		S442.1,477.4,433.4,340.6z"/>
	<path class="st0" d="M438.2,215.5c-31,0-50.5,9.7-50.5,9.7s-26.2-13.6-47.5-13.6s-39.8,4.9-39.8,4.9s-32-34.9-80.5-34.9
		C156.9,181.5,87,244.6,87,356.2s93.1,146.5,141.7,146.5s81.5-30.1,81.5-30.1s20.4,0,46.6,0s46.6-16.5,46.6-16.5s1.9,0,41.7,0
		s99-42.7,99-122.3S469.3,215.5,438.2,215.5z M438.2,448.3c-40.8,0-40.8,0-40.8,0s-18.4,13.6-41.7,13.6s-50.5,0-50.5,0
		c-10.7,13.6-29.1,29.1-81.5,32s-84.4-33-100.9-60.2s-21.3-86.4-5.8-155.2s78.6-87.3,106.7-87.3c30.1,0,67.9,28.1,75.7,38.8
		c26.2-7.8,53.4-17.5,92.2,5.8c8.7-5.8,28.1-10.7,46.6-10.7c18.4,0,92.2,26.2,92.2,105.8S479,448.3,438.2,448.3z"/>
	<path class="st0" d="M219,201.9c-28.1,0-96.1,27.2-96.1,146.5s64,137.8,101.9,137.8s108.7-29.1,108.7-141.7S258.7,201.9,219,201.9z
		"/>
	<path class="st0" d="M478,249.4c-40.8-31-74.7-6.8-74.7-6.8s41.7,31,41.7,98s-36.9,99.9-36.9,99.9s28.1,3.4,50.5-3.9
		c35.9-11.6,57.2-49.5,57.2-82.5S518.8,280.5,478,249.4z"/>
</g>
<path class="st0" d="M314.4,41.6c0,0,17.1,18.6,17.1,47.7c0,24.6-15.2,47.8-39.6,62.1c0,0,18.3,8.7,32.9,8.7
	c63.1,0,84.4-33,84.4-63.1S368.4,24.3,314.4,41.6z"/>
<g>
	<path class="st0" d="M491.6,110.7c0,34-34,51.4-66.9,51.4c0,0-30.6,0.1-39.5-10.2c17.6-10.2,31.8-26,31.8-49
		c0-15.2-5-29.1-13.5-40.6C403.3,62.3,491.6,53.4,491.6,110.7z"/>
	<path class="st0" d="M424.7,45.7c-5.5,0-14.5-0.8-25.6,1.3C381.9,32,357,23.3,332.5,23.3c-8.8,0-14.5,0.9-23.3,3.9
		C287.4,11.3,253.4,2,227.7,2c-53.4,0-104,39.8-104.8,83.4c-1,52.4,60.2,88.3,111.6,88.3c15.3,0,30.9-4.1,45.2-9.8c0,0,0,0,0,0
		c12.4,7.1,27.6,11.7,46,11.7c21.1,0,38.8-4.3,53-11.3c15.8,8.5,34.4,11.3,49.9,11.3c34,0,80.5-20.4,80.5-66.9
		S449.9,45.7,424.7,45.7z M500.3,110.7c0,48.5-56.3,58.2-73.7,58.2c-31,0-47.7-13.6-47.7-13.6c-19.6,9.6-41.8,13.1-53.2,12.7
		c-23.3-1-43.9-11.4-43.9-11.4c-14.1,6.2-30.5,9.7-48.3,9.4c-56.3-1-99.9-35.9-99.9-83.4c0-24.4,29.1-74.7,98-72.8
		c35,1,60.2,11,76.6,26l0,0c32.5-11.7,67.7-1,88.7,19C480,47.6,500.3,89.3,500.3,110.7z"/>
</g>
<path class="st0" d="M1,597c0,0,287-90,362-90c137,0,222,15,348-5s222-99,251-138s14-8-6,23s-93,78-152,107s-246,47-324,40
	s-222,12-289,25S11,606,1,597z"/>
<path class="st0" d="M157,588c0,0,99-30,165-34s227-3,283,0s179-11,257-57s126-93,139-130s22-56,22-38s-11,94-77,150s-174,85-243,94
	s-228-5-309-4s-121,13-200,23C114.6,602,157,588,157,588z"/>
<path class="st0" d="M744.6,233.7c0-37.8-34-64.3-64.2-64.3c-30.2,0-96.4,0-96.4,0s0,100.2,0,113.4c0,13.2,1.9,13.2,11.3,13.2
	c9.4,0,58.6,0,83.1,0C716.3,296,744.6,269.6,744.6,233.7z M636.9,266.6v-69.9c0,0,70.9-5.7,70.9,34S636.9,266.6,636.9,266.6z"/>
<polygon class="st0" points="910.6,169.4 910.6,295.3 1024,295.3 1024,270.7 942.8,270.7 942.8,245.1 1020.2,245.1 1020.2,218.7 
	944.6,218.7 944.6,196.9 1024,196.9 1024,169.4 "/>
<path class="st0" d="M869.2,169.4c-13.2,0-79.4,0-107.7,0v126.7h37.8v-43.6c0,0,41.6,0,62.4,0s30.2-15.1,30.2-26.7s0-22.4,0-35.7
	C891.9,177,882.5,169.4,869.2,169.4z M842.8,228c-20.8,0-47.2,0-47.2,0v-37.7c0,0,41.6,0,49.1,0s15.1,7.5,15.1,13.2
	S863.6,228,842.8,228z"/>
<text transform="matrix(1 0 0 1 582 369.1118)" class="st0 st1 st2">Senegal</text>
</svg>
